<?xml version="1.0" encoding="UTF-8" standalone="no"?>
<!-- Created with Inkscape (http://www.inkscape.org/) -->

<svg
   width="26.176176mm"
   height="42.021767mm"
   viewBox="0 0 26.176176 42.021767"
   version="1.1"
   id="svg4380"
   inkscape:version="1.2.2 (b0a8486541, 2022-12-01)"
   sodipodi:docname="digimini-symbolic.svg"
   xmlns:inkscape="http://www.inkscape.org/namespaces/inkscape"
   xmlns:sodipodi="http://sodipodi.sourceforge.net/DTD/sodipodi-0.dtd"
   xmlns="http://www.w3.org/2000/svg"
   xmlns:svg="http://www.w3.org/2000/svg">
  <sodipodi:namedview
     id="namedview4382"
     pagecolor="#ffffff"
     bordercolor="#000000"
     borderopacity="0.25"
     inkscape:showpageshadow="2"
     inkscape:pageopacity="0.0"
     inkscape:pagecheckerboard="0"
     inkscape:deskcolor="#d1d1d1"
     inkscape:document-units="mm"
     showgrid="false"
     inkscape:zoom="2"
     inkscape:cx="-1"
     inkscape:cy="124.5"
     inkscape:window-width="2560"
     inkscape:window-height="1375"
     inkscape:window-x="1920"
     inkscape:window-y="41"
     inkscape:window-maximized="1"
     inkscape:current-layer="layer1" />
  <defs
     id="defs4377" />
  <g
     inkscape:label="Layer 1"
     inkscape:groupmode="layer"
     id="layer1"
     transform="translate(-82.782124,-78.004444)">
    <path
       id="path5220"
       style="fill:#9b9b9b;fill-opacity:1;stroke-width:2"
       d="m 84.67038,78.004444 c -0.427177,0 -0.760413,0.34397 -0.771012,0.771012 l -0.529167,21.319114 v 5.11234 c 4.077189,0.65955 8.387942,0.9984 12.500529,1.01028 4.112486,-0.0117 8.42243,-0.35076 12.4995,-1.01028 v -5.11234 l -0.52917,-21.319114 c -0.0106,-0.427042 -0.34384,-0.771012 -0.77101,-0.771012 z m 5.199683,2.167826 h 11.999787 l 0.52916,24.00008 H 89.340896 Z m -6.499862,25.13696 v 8.41655 c -0.196367,-0.0317 -0.392843,-0.0634 -0.588077,-0.0966 v 4.48448 0.80719 c 4.249003,0.72325 8.777991,1.09293 13.08809,1.10536 4.310276,-0.0123 8.838906,-0.38209 13.088086,-1.10536 v -0.80719 -4.48448 c -0.19524,0.0332 -0.3917,0.0649 -0.58807,0.0966 v -8.41655 c -4.078,0.65882 -8.387119,0.99751 -12.4995,1.00924 -4.111699,-0.0119 -8.42288,-0.35061 -12.500529,-1.00924 z m 24.224879,9.17929 c 0.0275,5e-4 0.0495,0.0232 0.0491,0.0507 v 4.15426 c -4.9e-4,0.0269 -0.0222,0.0486 -0.0491,0.0491 -0.0275,3.6e-4 -0.0502,-0.0216 -0.0506,-0.0491 v -4.15426 c -3.6e-4,-0.0281 0.0225,-0.0511 0.0506,-0.0507 z m -23.433712,0.002 c 0.02751,5e-4 0.04945,0.0231 0.04909,0.0506 v 4.15427 c -4.85e-4,0.0269 -0.02218,0.0486 -0.04909,0.0491 -0.02751,3.6e-4 -0.05014,-0.0216 -0.05064,-0.0491 v -4.15427 c -3.62e-4,-0.0281 0.02252,-0.051 0.05064,-0.0506 z m 22.054982,0.19327 c 0.0273,-3.6e-4 0.0499,0.0213 0.0506,0.0486 v 4.15426 c 6.6e-4,0.0283 -0.0223,0.0515 -0.0506,0.0512 -0.0283,3.7e-4 -0.0513,-0.0228 -0.0506,-0.0512 v -4.15426 c 7.8e-4,-0.0273 0.0233,-0.0489 0.0506,-0.0486 z m -20.677806,0.002 c 0.02732,-3.6e-4 0.04987,0.0213 0.05064,0.0486 v 4.15427 c 6.6e-4,0.0283 -0.02232,0.0515 -0.05064,0.0512 -0.02772,-5e-4 -0.04974,-0.0234 -0.04909,-0.0512 v -4.15427 c 7.55e-4,-0.0267 0.02238,-0.0481 0.04909,-0.0486 z m 19.298566,0.16588 c 0.0283,-6.6e-4 0.0515,0.0223 0.0512,0.0506 v 4.15427 c 6.7e-4,0.0285 -0.0226,0.0518 -0.0512,0.0512 -0.0275,-7.8e-4 -0.0492,-0.0236 -0.0486,-0.0512 v -4.15427 c -3.6e-4,-0.0273 0.0213,-0.0499 0.0486,-0.0506 z m -17.919838,0.002 c 0.02832,-6.6e-4 0.05153,0.0224 0.05116,0.0506 v 4.15427 c -4.91e-4,0.0277 -0.02344,0.0498 -0.05116,0.0491 -0.02752,3.6e-4 -0.05015,-0.0216 -0.05064,-0.0491 v -4.15427 c -3.62e-4,-0.0281 0.02253,-0.051 0.05064,-0.0506 z m 16.541108,0.14263 c 0.0281,-3.6e-4 0.051,0.0225 0.0506,0.0506 v 4.15427 c 3.6e-4,0.0281 -0.0225,0.0511 -0.0506,0.0507 -0.0273,-7.8e-4 -0.0489,-0.0234 -0.0486,-0.0507 v -4.15427 c -3.6e-4,-0.0273 0.0213,-0.0499 0.0486,-0.0506 z m -15.161864,0.002 c 0.02751,7.8e-4 0.04923,0.0236 0.04858,0.0512 v 4.15427 c -7.48e-4,0.0265 -0.02207,0.0478 -0.04858,0.0486 -0.02751,6.5e-4 -0.05038,-0.0211 -0.05116,-0.0486 v -4.15427 c -6.7e-4,-0.0285 0.02263,-0.0518 0.05116,-0.0512 z m 13.785204,0.11937 c 0.0273,7.8e-4 0.0489,0.0233 0.0486,0.0506 v 4.15427 c 6.5e-4,0.0275 -0.0211,0.0504 -0.0486,0.0512 -0.0285,6.7e-4 -0.0518,-0.0226 -0.0512,-0.0512 v -4.15427 c -3.7e-4,-0.0283 0.0228,-0.0513 0.0512,-0.0506 z m -12.406477,0.002 c 0.02731,7.8e-4 0.04894,0.0228 0.04858,0.0501 v 4.15427 c -4.76e-4,0.0267 -0.02187,0.0483 -0.04858,0.0491 -0.02751,3.6e-4 -0.05014,-0.0216 -0.05064,-0.0491 v -4.15427 c -3.62e-4,-0.0281 0.02252,-0.0505 0.05064,-0.0501 z m 1.377177,0.0977 c 0.02812,-3.6e-4 0.051,0.022 0.05064,0.0501 v 4.15479 c -4.98e-4,0.0275 -0.02313,0.0494 -0.05064,0.0491 -0.02691,-4.8e-4 -0.04861,-0.0222 -0.04909,-0.0491 v -4.15479 c -3.57e-4,-0.0275 0.02158,-0.0496 0.04909,-0.0501 z m 9.65006,0 c 0.0273,-3.6e-4 0.0499,0.0213 0.0506,0.0486 v 4.15427 c 6.6e-4,0.0283 -0.0223,0.0515 -0.0506,0.0512 -0.0283,3.7e-4 -0.0513,-0.0228 -0.0506,-0.0512 v -4.15427 c 7.8e-4,-0.0273 0.0233,-0.0489 0.0506,-0.0486 z m -8.271333,0.0739 c 0.02833,-3.7e-4 0.0513,0.0228 0.05064,0.0512 v 4.15427 c -7.74e-4,0.0273 -0.02332,0.0489 -0.05064,0.0486 -0.02672,-4.7e-4 -0.04834,-0.0219 -0.04909,-0.0486 v -4.15427 c -6.48e-4,-0.0277 0.02138,-0.0507 0.04909,-0.0512 z m 6.892603,0 c 0.02752,-3.6e-4 0.05015,0.0216 0.05064,0.0491 v 4.15427 c 3.62e-4,0.0281 -0.02252,0.051 -0.05064,0.0506 -0.02751,-5e-4 -0.04945,-0.0231 -0.04909,-0.0506 v -4.15427 c 4.8e-4,-0.0269 0.02218,-0.0486 0.04909,-0.0491 z m -5.513876,0.0512 c 0.02812,-3.6e-4 0.05101,0.0225 0.05064,0.0506 v 4.15427 c 3.62e-4,0.0281 -0.02252,0.051 -0.05064,0.0506 -0.02812,3.6e-4 -0.051,-0.0225 -0.05064,-0.0506 v -4.15427 c -3.68e-4,-0.0281 0.02252,-0.051 0.05064,-0.0506 z m 1.379244,0 c 0.02731,7.8e-4 0.04894,0.0233 0.04858,0.0506 v 4.15427 c 3.61e-4,0.0273 -0.02127,0.0499 -0.04858,0.0506 -0.02832,6.6e-4 -0.05153,-0.0223 -0.05116,-0.0506 v -4.15427 c -3.76e-4,-0.0283 0.02284,-0.0513 0.05116,-0.0506 z m 2.755388,0 c 0.02832,-6.6e-4 0.05154,0.0223 0.05116,0.0506 v 4.15427 c -7.79e-4,0.0275 -0.02364,0.0492 -0.05116,0.0486 -0.02651,-7.4e-4 -0.04783,-0.0221 -0.04858,-0.0486 v -4.15427 c -3.66e-4,-0.0273 0.02126,-0.0499 0.04858,-0.0506 z m -1.376661,0.0274 c 0.02731,7.8e-4 0.04894,0.0233 0.04858,0.0507 v 4.15426 c 3.66e-4,0.0273 -0.02126,0.0499 -0.04858,0.0507 -0.02812,3.6e-4 -0.05101,-0.0225 -0.05064,-0.0507 v -4.15426 c -3.68e-4,-0.0281 0.02252,-0.051 0.05064,-0.0507 z" />
  </g>
</svg>
