<?xml version="1.0" encoding="UTF-8" standalone="no"?>
<!-- Created with Inkscape (http://www.inkscape.org/) -->

<svg
   width="100"
   height="100"
   viewBox="0 0 26.458333 26.458333"
   version="1.1"
   id="svg5"
   xml:space="preserve"
   inkscape:version="1.2.2 (b0a8486541, 2022-12-01)"
   sodipodi:docname="rubbish-bin.svg"
   xmlns:inkscape="http://www.inkscape.org/namespaces/inkscape"
   xmlns:sodipodi="http://sodipodi.sourceforge.net/DTD/sodipodi-0.dtd"
   xmlns="http://www.w3.org/2000/svg"
   xmlns:svg="http://www.w3.org/2000/svg"><sodipodi:namedview
     id="namedview7"
     pagecolor="#ffffff"
     bordercolor="#000000"
     borderopacity="0.25"
     inkscape:showpageshadow="2"
     inkscape:pageopacity="0.0"
     inkscape:pagecheckerboard="0"
     inkscape:deskcolor="#d1d1d1"
     inkscape:document-units="mm"
     showgrid="false"
     inkscape:zoom="0.76078844"
     inkscape:cx="197.16388"
     inkscape:cy="561.25984"
     inkscape:window-width="2560"
     inkscape:window-height="1375"
     inkscape:window-x="1920"
     inkscape:window-y="41"
     inkscape:window-maximized="1"
     inkscape:current-layer="layer1" /><defs
     id="defs2" /><g
     inkscape:label="Layer 1"
     inkscape:groupmode="layer"
     id="layer1"><path
       style="fill:#6afebe;stroke-width:0.0542881;fill-opacity:1"
       d="M 7.4321349,23.641995 C 7.3944714,23.626812 7.3403091,23.570786 7.3117763,23.517471 7.2832435,23.464161 7.1121902,22.360846 6.9316574,21.065665 6.7511245,19.770483 6.5311596,18.209982 6.4428465,17.597883 6.3545335,16.985783 6.1578363,15.593293 6.0057419,14.503459 5.8536496,13.413624 5.6096823,11.680116 5.4635937,10.651221 5.317505,9.6223264 5.2095436,8.7689352 5.2236807,8.754798 5.2677997,8.71068 21.262664,8.711824 21.262664,8.756028 c 0,0.022976 -0.0722,0.5377102 -0.160448,1.1438532 -0.08825,0.6061408 -0.284957,1.9937588 -0.437137,3.0835928 -0.152179,1.089835 -0.372189,2.653333 -0.48891,3.474441 -0.116722,0.821107 -0.372395,2.641118 -0.568161,4.044467 -0.195766,1.403349 -0.370301,2.64574 -0.387856,2.760866 -0.01756,0.115127 -0.0782,0.255597 -0.134757,0.312156 -0.09968,0.09968 -0.279,0.102705 -5.843806,0.09855 -3.157535,-0.0024 -5.7717885,-0.0167 -5.8094541,-0.03188 z M 10.296458,21.132461 C 10.599215,20.91423 10.601622,20.889286 10.468164,19.3536 10.157188,15.775241 10.077466,14.871121 10.026137,14.340594 9.9958029,14.02708 9.9319683,13.294191 9.8842815,12.71195 9.8291857,12.03927 9.7670951,11.588135 9.7139669,11.474502 c -0.2168277,-0.46377 -0.9563667,-0.435781 -1.1549803,0.04371 -0.076437,0.184534 -0.06342,0.369762 0.3528706,5.021051 0.069481,0.77632 0.1823876,2.05662 0.2509046,2.845114 0.1384106,1.592828 0.1718515,1.70682 0.5384057,1.835338 0.2193597,0.07691 0.4053605,0.04965 0.5952905,-0.08726 z m 3.228504,0.07273 c 0.380053,-0.180348 0.361755,0.09028 0.34365,-5.082296 L 13.85234,11.47204 13.722209,11.333537 c -0.299506,-0.318775 -0.782576,-0.285105 -1.022393,0.07127 l -0.125016,0.185775 0.01446,4.655081 0.01445,4.655084 0.135721,0.146015 c 0.234527,0.25232 0.482348,0.302301 0.785537,0.158428 z m 3.37711,-0.05273 c 0.210182,-0.137717 0.275762,-0.352009 0.340299,-1.111953 0.03421,-0.402899 0.121243,-1.404359 0.193398,-2.225468 0.07215,-0.821108 0.193849,-2.213599 0.270434,-3.094425 0.07658,-0.880824 0.163014,-1.856145 0.192064,-2.167382 0.08801,-0.942921 0.07982,-1.019475 -0.131761,-1.231054 -0.150607,-0.150607 -0.226042,-0.184581 -0.409856,-0.184581 -0.298409,0 -0.512731,0.117939 -0.612241,0.336909 -0.0447,0.09836 -0.109045,0.50863 -0.142995,0.911719 -0.03395,0.403089 -0.09874,1.148195 -0.143989,1.655788 -0.04524,0.507595 -0.118533,1.350418 -0.162863,1.872942 -0.04433,0.522522 -0.143593,1.634074 -0.220586,2.47011 -0.184986,2.008671 -0.193804,2.472132 -0.05012,2.63404 0.235378,0.265231 0.593866,0.319666 0.878214,0.133355 z M 4.4529764,7.7446015 C 4.4358024,7.6998243 4.4304654,7.2906267 4.4411374,6.8352751 4.4596454,6.0454805 4.4674664,5.9955737 4.611013,5.7513334 4.693776,5.610518 4.8416557,5.4341586 4.939637,5.3594246 5.3301424,5.0615699 5.3649087,5.0573205 7.4104697,5.0573205 h 1.8948537 l 0.024579,-0.4246048 c 0.052424,-0.9055961 0.6889816,-1.6259709 1.5908696,-1.8003421 0.224391,-0.043384 1.001325,-0.057252 2.497256,-0.044578 2.118742,0.017953 2.179109,0.02144 2.483501,0.1434643 0.704291,0.2823346 1.178915,0.9435017 1.224185,1.7053277 l 0.025,0.420733 h 1.856296 c 2.124255,0 2.21912,0.014896 2.614839,0.4106154 0.328236,0.3282362 0.400848,0.6145864 0.400848,1.5807547 v 0.7773255 h -8.769239 c -7.7439266,0 -8.7728935,-0.00952 -8.8004816,-0.081415 z M 15.833849,4.7804499 c 0,-0.2408998 -0.0233,-0.3001671 -0.17934,-0.4562092 C 15.511338,4.1810698 15.415536,4.1377453 15.179486,4.1094238 14.698522,4.0517198 11.086784,4.1143938 10.95923,4.1826538 10.740972,4.2994627 10.622187,4.5146387 10.622187,4.7932 v 0.2641205 h 2.605831 2.605831 z"
       id="path248"
       sodipodi:nodetypes="cssssssssssscssccsssscssssscccsscccsccssssssssssssssssssscssssscssscsssssssscccs" /></g></svg>
