<?xml version="1.0" encoding="UTF-8" standalone="no"?>
<!-- Created with Inkscape (http://www.inkscape.org/) -->

<svg
   viewBox="0 0 100 100"
   version="1.1"
   id="svg640"
   xml:space="preserve"
   xmlns="http://www.w3.org/2000/svg"
   xmlns:svg="http://www.w3.org/2000/svg">
<g id="g1971"
  transform="matrix(0.88529357,0,0,0.88529357,-64.618715,-56.27932)"
  style="fill:#6afebe;fill-opacity:1">
  <path id="smile"
    style="fill:#6afebe;stroke:none"
    d="m 98.039618,122.78062 a 31.877951,35.456112 0 0 0 31.429612,29.62868 31.877951,35.456112 0 0 0 31.4296,-29.62868 h -4.81107 a 27.250126,27.250126 0 0 1 -26.61853,21.42246 27.250126,27.250126 0 0 1 -26.61853,-21.42246 z" />
  <path id="outer"
    style="fill:#6afebe; stroke: none"
    d="m 129.46875,67.267578 c -29.10834,0 -52.78125,23.674864 -52.78125,52.783202 0,29.10834 23.67291,52.78125 52.78125,52.78125 29.10834,0 52.7832,-23.67291 52.7832,-52.78125 0,-29.108338 -23.67486,-52.783202 -52.7832,-52.783202 z m 0,7.199219 c 25.21717,0 45.58398,20.36681 45.58398,45.583983 0,25.21718 -20.36681,45.58203 -45.58398,45.58203 -25.21717,0 -45.582031,-20.36485 -45.582031,-45.58203 0,-25.217173 20.364861,-45.583983 45.582031,-45.583983 z" />
  <circle
    style="fill:#6afebe;stroke:none" id="lefteye"
    cx="111.86474" cy="102.8419" r="8.3959703" />
  <circle
   style="fill:#6afebe;stroke:none" id="righteye"
   cx="147.0737" cy="102.94907" r="8.3959703" />
</g>
</svg>
